<svg width="86" height="86" viewBox="0 0 86 86" fill="none" xmlns="http://www.w3.org/2000/svg">
<path d="M40 86C62.0914 86 80 68.0914 80 46C80 23.9086 62.0914 6 40 6C17.9086 6 0 23.9086 0 46C0 68.0914 17.9086 86 40 86Z" fill="#CFDFFF"/>
<path d="M46 80C68.0914 80 86 62.0914 86 40C86 17.9086 68.0914 0 46 0C23.9086 0 6 17.9086 6 40C6 62.0914 23.9086 80 46 80Z" fill="#1565D8"/>
<path d="M33.9462 56L30.5 52.5538L54.1308 28.9231H32.9615V24H62.5V53.5385H57.5769V32.3692L33.9462 56Z" fill="white"/>
</svg>
