<svg width="86" height="86" viewBox="0 0 86 86" fill="none" xmlns="http://www.w3.org/2000/svg">
<path d="M40 86C62.0914 86 80 68.0914 80 46C80 23.9086 62.0914 6 40 6C17.9086 6 0 23.9086 0 46C0 68.0914 17.9086 86 40 86Z" fill="#CFDFFF"/>
<path d="M46 80C68.0914 80 86 62.0914 86 40C86 17.9086 68.0914 0 46 0C23.9086 0 6 17.9086 6 40C6 62.0914 23.9086 80 46 80Z" fill="#1565D8"/>
<path d="M33.9 50.8V38.2H37.5V50.8H33.9ZM44.7 50.8V38.2H48.3V50.8H44.7ZM28.5 58V54.4H64.5V58H28.5ZM55.5 50.8V38.2H59.1V50.8H55.5ZM28.5 34.6V31L46.5 22L64.5 31V34.6H28.5ZM36.51 31H56.49L46.5 26.05L36.51 31Z" fill="white"/>
</svg>
