<svg width="35" height="35" viewBox="0 0 35 35" fill="none" xmlns="http://www.w3.org/2000/svg">
<circle cx="17.5" cy="17.5" r="17.5" fill="#DBE7FF"/>
<path d="M25.2475 9.83237H11.7009C11.4206 9.83237 11.1404 9.92579 10.9535 10.2061L9.55214 12.0746C9.08502 12.7285 9.55214 13.5693 10.2995 13.5693H23.8461C24.1264 13.5693 24.4066 13.4759 24.5935 13.1956L25.9948 11.3272C26.462 10.6732 25.9948 9.83237 25.2475 9.83237Z" stroke="#1565D8" stroke-width="1.5" stroke-miterlimit="10"/>
<path d="M10.2995 15.9049H23.8461C24.1264 15.9049 24.4066 15.9984 24.5935 16.2786L25.9948 18.1471C26.462 18.8011 25.9948 19.6419 25.2475 19.6419H11.7009C11.4206 19.6419 11.1404 19.5485 10.9535 19.2682L9.55214 17.3997C9.08502 16.7458 9.55214 15.9049 10.2995 15.9049Z" stroke="#1565D8" stroke-width="1.5" stroke-miterlimit="10"/>
<path d="M25.2475 21.9775H11.7009C11.4206 21.9775 11.1404 22.071 10.9535 22.3512L9.55214 24.2197C9.08502 24.8737 9.55214 25.7145 10.2995 25.7145H23.8461C24.1264 25.7145 24.4066 25.6211 24.5935 25.3408L25.9948 23.4723C26.462 22.8184 25.9948 21.9775 25.2475 21.9775Z" stroke="#1565D8" stroke-width="1.5" stroke-miterlimit="10"/>
</svg>
